M48
INCH,TZ
T1C0.0295
T2C0.0315
T3C0.0394
T4C0.0433
T5C0.0472
T6C0.0512
T7C0.0984
%
G90
G05
T1
X63878Y-28740
X67878Y-28740
X67717Y-30709
X67717Y-34709
T2
X62500Y-19685
X62500Y-23685
X59402Y-26575
X59402Y-29575
X60402Y-26575
X60402Y-29575
X61402Y-26575
X61402Y-29575
X62402Y-26575
X62402Y-29575
X63913Y-26476
X67913Y-26476
T3
X60827Y-21063
X60827Y-23327
X59843Y-30906
X59843Y-34843
X63287Y-39961
X67224Y-39961
T4
X64929Y-23327
X65929Y-23327
X66929Y-23327
X64862Y-20374
X65862Y-20374
X66862Y-20374
T5
X60138Y-37598
X67224Y-37598
X71358Y-22736
X71358Y-37697
T6
X60236Y-42028
X58957Y-18799
X60335Y-18799
X59449Y-23130
X59449Y-24508
X63960Y-31127
X64944Y-35064
X65929Y-31127
X61614Y-42028
T7
X77756Y-18701
X77756Y-42323
X56102Y-42323
X56102Y-18701
T0
M30
