M48
INCH,TZ
T1C0.0295
T2C0.0315
T3C0.0394
T4C0.0433
T5C0.0472
T6C0.0512
%
G90
G05
T1
X67224Y-30807
X67224Y-34807
X63878Y-28248
X67878Y-28248
T2
X64229Y-29826
X64229Y-33826
X59402Y-26575
X59402Y-29575
X60402Y-26575
X60402Y-29575
X61402Y-26575
X61402Y-29575
X62402Y-26575
X62402Y-29575
X65803Y-29763
X65803Y-33763
X63913Y-26476
X67913Y-26476
X62500Y-19685
X62500Y-23685
T3
X59843Y-30906
X59843Y-34843
X63287Y-39961
X67224Y-39961
X62205Y-30906
X62205Y-34843
T4
X64862Y-20374
X65862Y-20374
X66862Y-20374
X64929Y-23327
X65929Y-23327
X66929Y-23327
T5
X71358Y-22736
X71358Y-37697
X60138Y-37598
X67224Y-37598
T6
X59449Y-23130
X59449Y-24508
X58957Y-18799
X60335Y-18799
X60236Y-42028
X61614Y-42028
T0
M30
